<svg xmlns="http://www.w3.org/2000/svg" width="241" height="221"><g fill="none" fill-rule="evenodd"><path fill="#343433" d="M63.1084 95.5817C63.1084 90.2257 62.6614 85.2667 61.7724 80.6977 60.8814 76.1327 59.5974 72.1667 57.9224 68.8077 56.2444 65.4477 54.1234 62.7947 51.5574 60.8537 48.9884 58.9107 46.0814 57.9387 42.8344 57.9387 39.4794 57.9387 36.5204 58.9107 33.9544 60.8537 31.3864 62.7947 29.2644 65.4477 27.5894 68.8077 25.9114 72.1667 24.6534 76.1327 23.8164 80.6977 22.9774 85.2667 22.5594 90.2257 22.5594 95.5817 22.5594 100.8317 22.9774 105.7157 23.8164 110.2277 24.6534 114.7437 25.9114 118.6807 27.5894 122.0397 29.2644 125.3987 31.3864 128.0527 33.9544 129.9957 36.5204 131.9357 39.4794 132.9087 42.8344 132.9087 46.1854 132.9087 49.1214 131.9357 51.6354 129.9957 54.1504 128.0527 56.2734 125.3987 58.0014 122.0397 59.7304 118.6807 61.0114 114.7437 61.8504 110.2277 62.6884 105.7157 63.1084 100.8317 63.1084 95.5817M66.5664 95.6597C66.5664 101.5277 66.0164 106.9497 64.9164 111.9247 63.8164 116.9027 62.2444 121.1747 60.2004 124.7337 58.1584 128.2997 55.6684 131.0767 52.7354 133.0637 49.8014 135.0557 46.5014 136.0527 42.8344 136.0527 39.1654 136.0527 35.8644 135.0557 32.9334 133.0637 29.9984 131.0767 27.5094 128.2997 25.4674 124.7337 23.4234 121.1747 21.8524 116.9027 20.7524 111.9247 19.6514 106.9497 19.1024 101.5277 19.1024 95.6597 19.1024 89.6877 19.6254 84.2377 20.6734 79.3127 21.7194 74.3887 23.2394 70.1197 25.2314 66.5047 27.2204 62.8887 29.7114 60.0857 32.6964 58.0957 35.6824 56.1077 39.0624 55.1107 42.8344 55.1107 46.5014 55.1107 49.8014 56.1077 52.7354 58.0957 55.6684 60.0857 58.1584 62.8887 60.2004 66.5047 62.2444 70.1197 63.8164 74.3887 64.9164 79.3127 66.0164 84.2377 66.5664 89.6877 66.5664 95.6597M220.5664 207.3346C218.2304 214.4786 213.6244 218.7736 206.7584 220.2336 203.1704 220.9956 199.7614 220.7026 196.5274 219.3556 193.2964 218.0126 190.3374 215.7996 187.6504 212.7246 184.9624 209.6556 182.5874 205.7966 180.5284 201.1446 178.4684 196.4966 176.8284 191.3036 175.6094 185.5636 174.3664 179.7196 173.7184 174.2846 173.6714 169.2636 173.6224 164.2356 174.1944 159.7516 175.3904 155.8016 176.5814 151.8516 178.4094 148.5956 180.8664 146.0386 183.3224 143.4856 186.3964 141.8136 190.0844 141.0296 193.5684 140.2896 196.7814 140.4076 199.7214 141.3896 202.6624 142.3736 205.1434 144.0926 207.1654 146.5586L205.3184 149.1986C203.4094 146.7676 201.1554 145.1176 198.5584 144.2486 195.9684 143.3796 193.2874 143.2386 190.5184 143.8266 187.2374 144.5236 184.5724 146.0896 182.5154 148.5116 180.4604 150.9296 178.9874 153.9576 178.0964 157.5796 177.2064 161.2046 176.8534 165.3326 177.0344 169.9606 177.2154 174.5946 177.8624 179.5286 178.9754 184.7666 180.0654 189.8996 181.4654 194.5976 183.1714 198.8476 184.8804 203.1006 186.8754 206.7026 189.1654 209.6496 191.4534 212.5996 194.0284 214.7626 196.8904 216.1406 199.7554 217.5186 202.8244 217.8556 206.1054 217.1586 209.0774 216.5276 211.5994 215.1616 213.6704 213.0596 215.7394 210.9626 217.1994 208.3746 218.0454 205.3036L220.5664 207.3346z"/><path fill="#343433" d="M4.1 159.4L45.6 108.3 49.8 108.3 8 159.6 53 219.6 48.6 219.6 4.1 159.7 3.9 159.7 3.9 219.6.5 219.6.5 108.3 3.9 108.3 3.9 159.4M194.7354 187.8375L194.7354 184.6935 236.7004 184.6935 209.8224 141.7275C207.3064 137.6365 205.0824 133.8835 203.1414 130.4715 201.2044 127.0625 199.5824 123.8085 198.2694 120.7145 196.9614 117.6215 195.9664 114.5495 195.2854 111.5095 194.6044 108.4655 194.2634 105.2125 194.2634 101.7495 194.2634 98.2875 194.6824 94.9285 195.5194 91.6755 196.3604 88.4255 197.6704 85.5375 199.4514 83.0195 201.2324 80.5005 203.5354 78.4825 206.3664 76.9605 209.1944 75.4385 212.5474 74.6755 216.4224 74.6755 223.0254 74.6755 228.2134 76.5105 231.9844 80.1795 235.7564 83.8475 238.4274 89.0315 240.0004 95.7375L236.7004 96.5225C233.7654 83.8475 227.0094 77.5075 216.4224 77.5075 213.2824 77.5075 210.5294 78.1885 208.1734 79.5505 205.8134 80.9165 203.8764 82.7505 202.3574 85.0605 200.8394 87.3685 199.6854 90.0445 198.8984 93.0875 198.1134 96.1315 197.7194 99.3315 197.7194 102.6915 197.7194 108.3565 199.0044 113.9715 201.5694 119.5305 204.1414 125.0895 207.5694 131.2795 211.8664 138.1025L240.4714 183.7475 240.4714 187.8375 194.7354 187.8375z"/><path fill="#343433" d="M89.1406,176.3854 C88.0266,171.1444 86.5576,166.3884 84.7396,162.1044 C82.9186,157.8234 80.8376,154.2104 78.5016,151.2734 C76.1616,148.3394 73.5356,146.1834 70.6216,144.8174 C67.7036,143.4484 64.6586,143.1054 61.4836,143.7804 C58.2006,144.4774 55.5086,146.0424 53.4046,148.4804 C51.2946,150.9104 49.7696,153.9484 48.8306,157.5794 C47.8876,161.2164 47.4826,165.3544 47.6126,169.9944 C47.7406,174.6384 48.3636,179.5754 49.4776,184.8164 C50.5686,189.9504 51.9916,194.6414 53.7526,198.8784 C55.5086,203.1214 57.5586,206.7124 59.8996,209.6504 C62.2336,212.5874 64.8616,214.7394 67.7786,216.1094 C70.6926,217.4744 73.7876,217.8094 77.0706,217.1124 C80.3486,216.4154 83.0176,214.8534 85.0726,212.4314 C87.1296,210.0094 88.6546,206.9714 89.6456,203.3274 C90.6386,199.6814 91.0736,195.5624 90.9556,190.9724 C90.8356,186.3844 90.2316,181.5194 89.1406,176.3854 M92.5386,175.7414 C93.7586,181.4824 94.3486,186.8974 94.3076,191.9974 C94.2656,197.0934 93.6156,201.5974 92.3576,205.5024 C91.1016,209.4154 89.2426,212.6534 86.7866,215.2054 C84.3296,217.7624 81.3096,219.4244 77.7236,220.1874 C74.1346,220.9484 70.6996,220.6614 67.4176,219.3244 C64.1336,217.9894 61.1206,215.7904 58.3816,212.7244 C55.6426,209.6684 53.2186,205.8194 51.1056,201.1784 C48.9966,196.5374 47.3306,191.3504 46.1106,185.6104 C44.8686,179.7694 44.2476,174.3284 44.2496,169.2944 C44.2496,164.2604 44.8496,159.7674 46.0466,155.8174 C47.2406,151.8704 49.0936,148.6084 51.5996,146.0384 C54.1076,143.4774 57.2056,141.7984 60.8956,141.0144 C64.4806,140.2514 67.9156,140.5394 71.1996,141.8734 C74.4836,143.2114 77.5016,145.4364 80.2516,148.5454 C83.0016,151.6574 85.4266,155.5074 87.5266,160.0984 C89.6246,164.6854 91.2976,169.9014 92.5386,175.7414"/><path fill="#FFF" d="M202.0029.6593C201.5969.5723 201.4459.4893 201.3649.5333 201.0369.7073 200.7219.9153 200.4119 1.1253 195.7189 4.3373 191.3909 8.1433 185.7529 9.8093 183.8999 10.3563 183.3159 11.9653 183.3309 13.8573 183.3689 17.7373 184.7469 18.7373 188.2129 17.1903 192.5399 15.2573 196.8369 13.2603 198.7689 8.4133 199.7969 5.8263 200.9089 3.2723 202.0029.6593M144.0703 98.1579C149.8133 96.3769 153.5103 93.0459 156.4953 88.7829 157.6383 87.1469 158.9693 85.6339 159.9753 83.9229 160.3693 83.2489 160.3943 81.5759 160.0633 81.4149 159.1133 80.9409 157.8943 80.9169 156.7763 80.8969 156.3573 80.8929 155.8943 81.3449 155.5043 81.6539 151.4793 84.8289 148.0043 88.5249 145.5913 93.0709 144.8393 94.4939 144.6323 96.2099 144.0703 98.1579M200.0244 32.4054C199.5584 31.2694 199.2504 30.0244 198.5874 29.0184 197.7814 27.7974 196.5434 27.2604 195.2144 28.3714 192.8094 30.3724 190.4154 32.3974 188.0814 34.4854 187.0524 35.4024 186.4004 36.5454 187.0994 38.0094 187.9784 39.8414 189.0184 41.4444 191.3934 41.3614 194.8284 41.2394 199.7844 36.0024 200.0244 32.4054M193.8877 69.9635C193.8467 69.7735 193.8127 69.5825 193.7717 69.3905 191.0127 70.8935 188.5527 69.7345 185.9587 69.0575 184.7057 68.7325 182.7997 68.8665 181.8847 69.6275 178.3687 72.5365 173.7967 74.7755 173.6597 80.3235 173.6567 80.5105 173.5567 80.6885 173.5407 80.8735 173.4967 81.5105 173.4687 82.1495 173.4317 82.7815 174.2027 82.8055 175.0317 83.0285 175.7287 82.8205 178.2627 82.0585 178.9687 79.6875 180.0027 77.6365 181.3877 74.9065 183.4277 72.7865 186.3437 71.8645 188.1687 71.2895 190.1777 71.3435 192.0777 70.9805 192.7247 70.8555 193.2867 70.3155 193.8877 69.9635M137.626 48.5827C137.314 48.3657 137.221 48.2547 137.107 48.2357 136.864 48.1967 136.607 48.1657 136.364 48.1987 131.448 48.8487 128.352 52.3017 125.164 55.5637 124.89 55.8407 124.898 56.6937 125.114 57.0957 126.033 58.7997 128.499 59.7077 130.195 58.7287 132.57 57.3657 134.802 55.7307 137.021 54.1157 137.396 53.8397 137.714 52.7457 137.529 52.5617 136.17 51.1947 136.87 49.9207 137.626 48.5827M161.332 39.0192C162.272 38.3912 163.123 38.0422 163.66 37.4272 167.216 33.3972 170.75 29.3442 174.176 25.2042 174.922 24.2992 174.919 23.0262 174.062 21.9572 167.304 26.3852 161.157 34.4242 161.332 39.0192M104.3398 37.0646C104.8368 37.8056 105.1338 38.4286 105.5928 38.8876 106.4308 39.7286 107.4338 40.4036 108.2398 41.2676 109.1548 42.2516 109.6468 41.9626 110.4458 41.0566 112.2958 38.9586 113.3798 36.5786 113.5798 33.8206 113.6368 33.0676 113.6088 32.0476 113.1708 31.6026 112.8088 31.2376 111.6148 31.2756 111.0558 31.5946 109.2148 32.6466 107.4588 33.8506 105.7588 35.1156 105.1648 35.5566 104.8428 36.3506 104.3398 37.0646M228.0225 23.9772C227.2215 22.0882 225.8405 21.5872 224.3095 21.4412 219.8335 21.0092 215.1425 25.2912 215.0775 29.7852 215.0555 30.9442 215.7905 31.2112 216.5015 30.7102 217.6525 29.8962 218.7865 28.9332 219.5955 27.7992 221.3165 25.3972 223.2785 23.6982 226.4655 24.1072 226.8725 24.1602 227.3035 24.0432 228.0225 23.9772M235.1279 55.2575C235.1219 54.9675 235.1219 54.6735 235.1219 54.3825 234.4589 54.1365 233.8219 53.7575 233.1469 53.6605 227.7159 52.8845 222.7539 54.4645 217.9679 56.8275 217.6679 56.9765 217.5489 57.4835 217.3429 57.8245 217.8089 58.0485 218.3119 58.5235 218.7359 58.4635 222.5039 57.9265 226.2779 57.3615 230.0229 56.6705 231.7469 56.3505 233.4219 55.7375 235.1279 55.2575M163.4814 15.9152C162.9224 13.7542 161.7074 13.2482 160.0224 13.3072 155.2694 13.4712 152.0444 16.2592 149.1644 19.6122 148.8674 19.9622 148.9414 20.6272 148.8414 21.1442 149.0074 21.3062 149.1694 21.4652 149.3384 21.6262 153.4884 18.3672 157.8474 15.6062 163.4814 15.9152M137.7139 31.6832C138.0169 31.7832 138.3199 31.8852 138.6229 31.9822 139.5359 30.0572 140.6389 28.1902 141.2789 26.1772 141.5759 25.2452 141.2859 23.8262 140.7239 22.9802 139.6979 21.4332 138.3019 20.1242 136.9919 18.7812 136.7109 18.4932 136.1429 18.4922 135.7079 18.3592 135.7639 18.7882 135.6539 19.3822 135.8989 19.6242 137.7549 21.4702 137.7419 23.7912 137.7169 26.1382 137.7039 27.9882 137.7139 29.8352 137.7139 31.6832"/><path fill="#1A1918" d="M202.0029.6593C200.9089 3.2723 199.7969 5.8263 198.7689 8.4133 196.8369 13.2603 192.5399 15.2573 188.2129 17.1903 184.7469 18.7373 183.3689 17.7373 183.3309 13.8573 183.3159 11.9653 183.8999 10.3563 185.7529 9.8093 191.3909 8.1433 195.7189 4.3373 200.4119 1.1253 200.7219.9153 201.0369.7073 201.3649.5333 201.4459.4893 201.5969.5723 202.0029.6593M144.0703 98.1579C144.6323 96.2099 144.8393 94.4939 145.5913 93.0709 148.0043 88.5249 151.4793 84.8289 155.5043 81.6539 155.8943 81.3449 156.3573 80.8929 156.7763 80.8969 157.8943 80.9169 159.1133 80.9409 160.0633 81.4149 160.3943 81.5759 160.3693 83.2489 159.9753 83.9229 158.9693 85.6339 157.6383 87.1469 156.4953 88.7829 153.5103 93.0459 149.8133 96.3769 144.0703 98.1579M200.0244 32.4054C199.7844 36.0024 194.8284 41.2394 191.3934 41.3614 189.0184 41.4444 187.9784 39.8414 187.0994 38.0094 186.4004 36.5454 187.0524 35.4024 188.0814 34.4854 190.4154 32.3974 192.8094 30.3724 195.2144 28.3714 196.5434 27.2604 197.7814 27.7974 198.5874 29.0184 199.2504 30.0244 199.5584 31.2694 200.0244 32.4054M193.8877 69.9635C193.2867 70.3155 192.7247 70.8555 192.0777 70.9805 190.1777 71.3435 188.1687 71.2895 186.3437 71.8645 183.4277 72.7865 181.3877 74.9065 180.0027 77.6365 178.9687 79.6875 178.2627 82.0585 175.7287 82.8205 175.0317 83.0285 174.2027 82.8055 173.4317 82.7815 173.4687 82.1495 173.4967 81.5105 173.5407 80.8735 173.5567 80.6885 173.6567 80.5105 173.6597 80.3235 173.7967 74.7755 178.3687 72.5365 181.8847 69.6275 182.7997 68.8665 184.7057 68.7325 185.9587 69.0575 188.5527 69.7345 191.0127 70.8935 193.7717 69.3905 193.8127 69.5825 193.8467 69.7735 193.8877 69.9635M137.626 48.5827C136.87 49.9207 136.17 51.1947 137.529 52.5617 137.714 52.7457 137.396 53.8397 137.021 54.1157 134.802 55.7307 132.57 57.3657 130.195 58.7287 128.499 59.7077 126.033 58.7997 125.114 57.0957 124.898 56.6937 124.89 55.8407 125.164 55.5637 128.352 52.3017 131.448 48.8487 136.364 48.1987 136.607 48.1657 136.864 48.1967 137.107 48.2357 137.221 48.2547 137.314 48.3657 137.626 48.5827M161.332 39.0192C161.157 34.4242 167.304 26.3852 174.062 21.9572 174.919 23.0262 174.922 24.2992 174.176 25.2042 170.75 29.3442 167.216 33.3972 163.66 37.4272 163.123 38.0422 162.272 38.3912 161.332 39.0192M104.3398 37.0646C104.8428 36.3506 105.1648 35.5566 105.7588 35.1156 107.4588 33.8506 109.2148 32.6466 111.0558 31.5946 111.6148 31.2756 112.8088 31.2376 113.1708 31.6026 113.6088 32.0476 113.6368 33.0676 113.5798 33.8206 113.3798 36.5786 112.2958 38.9586 110.4458 41.0566 109.6468 41.9626 109.1548 42.2516 108.2398 41.2676 107.4338 40.4036 106.4308 39.7286 105.5928 38.8876 105.1338 38.4286 104.8368 37.8056 104.3398 37.0646M167.7197 53.1793C167.3877 56.8983 165.6687 59.1583 163.1977 60.6123 162.2947 61.1423 160.5847 60.5903 159.3977 60.1303 159.1187 60.0283 159.2387 58.1893 159.5877 57.3153 160.3477 55.4173 161.1597 53.4523 162.4007 51.8713 162.9567 51.1683 164.7067 50.9413 165.7287 51.2123 166.6217 51.4503 167.2537 52.6873 167.7197 53.1793M190.0996 62.2916C190.5756 61.3026 190.9846 60.2726 191.5396 59.3296 193.1276 56.6346 194.6276 53.8606 196.4586 51.3316 198.0866 49.0826 201.5926 48.7256 203.3366 50.3476 203.7116 50.6966 203.8776 51.2726 204.1366 51.7466 203.6836 51.9606 203.2216 52.1656 202.7686 52.3956 201.8586 52.8546 200.8156 53.1716 200.0806 53.8276 196.8526 56.6916 193.7216 59.6576 190.5526 62.5856 190.4066 62.4866 190.2526 62.3886 190.0996 62.2916M228.0225 23.9772C227.3035 24.0432 226.8725 24.1602 226.4655 24.1072 223.2785 23.6982 221.3165 25.3972 219.5955 27.7992 218.7865 28.9332 217.6525 29.8962 216.5015 30.7102 215.7905 31.2112 215.0555 30.9442 215.0775 29.7852 215.1425 25.2912 219.8335 21.0092 224.3095 21.4412 225.8405 21.5872 227.2215 22.0882 228.0225 23.9772M235.1279 55.2575C233.4219 55.7375 231.7469 56.3505 230.0229 56.6705 226.2779 57.3615 222.5039 57.9265 218.7359 58.4635 218.3119 58.5235 217.8089 58.0485 217.3429 57.8245 217.5489 57.4835 217.6679 56.9765 217.9679 56.8275 222.7539 54.4645 227.7159 52.8845 233.1469 53.6605 233.8219 53.7575 234.4589 54.1365 235.1219 54.3825 235.1219 54.6735 235.1219 54.9675 235.1279 55.2575M163.4814 15.9152C157.8474 15.6062 153.4884 18.3672 149.3384 21.6262 149.1694 21.4652 149.0074 21.3062 148.8414 21.1442 148.9414 20.6272 148.8674 19.9622 149.1644 19.6122 152.0444 16.2592 155.2694 13.4712 160.0224 13.3072 161.7074 13.2482 162.9224 13.7542 163.4814 15.9152M137.7139 31.6832C137.7139 29.8352 137.7039 27.9882 137.7169 26.1382 137.7419 23.7912 137.7549 21.4702 135.8989 19.6242 135.6539 19.3822 135.7639 18.7882 135.7079 18.3592 136.1429 18.4922 136.7109 18.4932 136.9919 18.7812 138.3019 20.1242 139.6979 21.4332 140.7239 22.9802 141.2859 23.8262 141.5759 25.2452 141.2789 26.1772 140.6389 28.1902 139.5359 30.0572 138.6229 31.9822 138.3199 31.8852 138.0169 31.7832 137.7139 31.6832"/><path fill="#343433" d="M127.0498,184.7164 L145.9358,110.4314 L145.9458,110.6904 L164.1758,184.7164 L127.0498,184.7164 Z M148.6168,108.3334 L146.4688,108.3334 L145.9608,108.3334 L143.0128,108.3334 L115.9788,216.4654 L115.6648,216.4654 L88.9458,108.3334 L85.4868,108.3334 L113.3068,219.6094 L118.1788,219.6094 L126.2498,187.8604 L164.9628,187.8604 L172.9788,219.6094 L176.4348,219.6094 L148.6168,108.3334 Z"/><path fill="#343433" d="M107.4 130.4L78.1 130.4 78.1 22.3 74.7 22.3 74.7 133.5 107.4 133.5 110.7 133.5 110.8 133.5 110.8 57.6 107.4 57.6"/></g></svg>